<svg width="800" height="1040" viewBox="0 0 800 1040" fill="none" xmlns="http://www.w3.org/2000/svg">
  <rect width="800" height="1040" rx="36" fill="#F4F8FF"/>
  <rect x="48" y="48" width="704" height="944" rx="28" fill="white"/>
  <circle cx="400" cy="162" r="56" fill="#DCEBFF"/>
  <rect x="278" y="236" width="244" height="32" rx="16" fill="#5AA3FF"/>
  <rect x="330" y="286" width="140" height="16" rx="8" fill="#A7B9D7"/>
  <rect x="194" y="346" width="412" height="14" rx="7" fill="#C7D7EE"/>
  <rect x="236" y="378" width="328" height="14" rx="7" fill="#D6E2F3"/>
  <rect x="74" y="450" width="152" height="420" rx="22" fill="#EAF2FF"/>
  <rect x="102" y="488" width="94" height="18" rx="9" fill="#6DAEFF"/>
  <rect x="102" y="530" width="96" height="12" rx="6" fill="#A6BDDE"/>
  <rect x="102" y="558" width="78" height="12" rx="6" fill="#B7C9E4"/>
  <rect x="102" y="634" width="82" height="18" rx="9" fill="#6DAEFF"/>
  <rect x="102" y="676" width="92" height="12" rx="6" fill="#A6BDDE"/>
  <rect x="102" y="704" width="74" height="12" rx="6" fill="#B7C9E4"/>
  <rect x="260" y="450" width="158" height="18" rx="9" fill="#5AA3FF"/>
  <rect x="260" y="488" width="454" height="14" rx="7" fill="#C7D7EE"/>
  <rect x="260" y="518" width="410" height="14" rx="7" fill="#D5E2F1"/>
  <rect x="260" y="548" width="438" height="14" rx="7" fill="#D5E2F1"/>
  <rect x="260" y="620" width="154" height="18" rx="9" fill="#5AA3FF"/>
  <rect x="260" y="660" width="438" height="14" rx="7" fill="#C7D7EE"/>
  <rect x="260" y="690" width="396" height="14" rx="7" fill="#D5E2F1"/>
  <rect x="260" y="720" width="424" height="14" rx="7" fill="#D5E2F1"/>
</svg>
