<svg width="800" height="1040" viewBox="0 0 800 1040" fill="none" xmlns="http://www.w3.org/2000/svg">
  <rect width="800" height="1040" rx="36" fill="#FCFAF7"/>
  <rect x="40" y="40" width="720" height="960" rx="28" fill="#FFFDF9"/>
  <rect x="40" y="40" width="720" height="248" rx="28" fill="url(#hero)"/>
  <rect x="82" y="104" width="268" height="38" rx="19" fill="#2F3B4A"/>
  <rect x="82" y="162" width="164" height="16" rx="8" fill="#4C5968"/>
  <rect x="516" y="108" width="164" height="14" rx="7" fill="#5A6572"/>
  <rect x="536" y="138" width="144" height="14" rx="7" fill="#6C7681"/>
  <rect x="74" y="338" width="198" height="18" rx="9" fill="#E7A56A"/>
  <rect x="74" y="382" width="220" height="14" rx="7" fill="#D0C2B2"/>
  <rect x="74" y="412" width="196" height="14" rx="7" fill="#E2D7CB"/>
  <rect x="74" y="470" width="220" height="178" rx="24" fill="#FFF5EA"/>
  <rect x="104" y="506" width="110" height="18" rx="9" fill="#E7A56A"/>
  <rect x="104" y="548" width="126" height="12" rx="6" fill="#B8A48E"/>
  <rect x="104" y="574" width="94" height="12" rx="6" fill="#CDBDAA"/>
  <rect x="332" y="338" width="394" height="146" rx="24" fill="#FFF8F1"/>
  <rect x="362" y="376" width="156" height="18" rx="9" fill="#2F3B4A"/>
  <rect x="362" y="418" width="300" height="14" rx="7" fill="#D0C2B2"/>
  <rect x="362" y="448" width="262" height="14" rx="7" fill="#E2D7CB"/>
  <rect x="332" y="520" width="184" height="188" rx="24" fill="#FFF8F1"/>
  <rect x="542" y="520" width="184" height="188" rx="24" fill="#FFF8F1"/>
  <rect x="362" y="558" width="100" height="18" rx="9" fill="#E7A56A"/>
  <rect x="572" y="558" width="100" height="18" rx="9" fill="#E7A56A"/>
  <rect x="362" y="598" width="118" height="12" rx="6" fill="#CDBDAA"/>
  <rect x="572" y="598" width="118" height="12" rx="6" fill="#CDBDAA"/>
  <defs>
    <linearGradient id="hero" x1="40" y1="40" x2="760" y2="288" gradientUnits="userSpaceOnUse">
      <stop stop-color="#F2B98A"/>
      <stop offset="0.5" stop-color="#FFE7CA"/>
      <stop offset="1" stop-color="#FBE5D3"/>
    </linearGradient>
  </defs>
</svg>
