<svg width="720" height="420" viewBox="0 0 720 420" fill="none" xmlns="http://www.w3.org/2000/svg">
  <rect width="720" height="420" rx="30" fill="#FFF7EF"/>
  <rect x="34" y="34" width="652" height="352" rx="28" fill="#FFFCF7" stroke="#EAD8C9"/>
  <rect x="60" y="60" width="600" height="300" rx="24" fill="#FFFDF9" stroke="#E7D6C6" stroke-width="6"/>
  <rect x="96" y="90" width="224" height="124" rx="18" fill="#FFFFFF" stroke="#E6D3C0"/>
  <rect x="124" y="118" width="112" height="12" rx="6" fill="#4A3424"/>
  <rect x="124" y="144" width="148" height="8" rx="4" fill="#A58D78"/>
  <rect x="356" y="90" width="268" height="58" rx="18" fill="#F9E4CC"/>
  <rect x="384" y="114" width="124" height="12" rx="6" fill="#8E5A25"/>
  <rect x="96" y="236" width="252" height="92" rx="18" fill="#FFFFFF" stroke="#E6D3C0"/>
  <rect x="124" y="264" width="98" height="11" rx="5.5" fill="#D08A3D"/>
  <rect x="124" y="288" width="164" height="8" rx="4" fill="#B69B86"/>
  <rect x="372" y="170" width="252" height="158" rx="18" fill="#FFFFFF" stroke="#E6D3C0"/>
  <rect x="400" y="202" width="118" height="11" rx="5.5" fill="#4A3424"/>
  <rect x="400" y="226" width="170" height="8" rx="4" fill="#A58D78"/>
  <rect x="400" y="250" width="158" height="8" rx="4" fill="#A58D78"/>
</svg>
