<svg width="800" height="1040" viewBox="0 0 800 1040" fill="none" xmlns="http://www.w3.org/2000/svg">
  <rect width="800" height="1040" rx="36" fill="#0B1527"/>
  <rect x="44" y="44" width="712" height="952" rx="28" fill="#101C31"/>
  <rect x="44" y="44" width="712" height="214" rx="28" fill="#162845"/>
  <rect x="74" y="92" width="218" height="36" rx="18" fill="#7CC4FF"/>
  <rect x="74" y="146" width="152" height="16" rx="8" fill="#9FB7D6"/>
  <rect x="516" y="92" width="164" height="14" rx="7" fill="#A4BEDC"/>
  <rect x="540" y="122" width="140" height="14" rx="7" fill="#8DA5C6"/>
  <rect x="556" y="152" width="124" height="14" rx="7" fill="#8DA5C6"/>
  <rect x="74" y="302" width="160" height="18" rx="9" fill="#7CC4FF"/>
  <rect x="74" y="340" width="294" height="16" rx="8" fill="#C9D8EA"/>
  <rect x="74" y="372" width="254" height="16" rx="8" fill="#B6C8DF"/>
  <rect x="74" y="440" width="230" height="246" rx="24" fill="#162845"/>
  <rect x="104" y="478" width="114" height="18" rx="9" fill="#7CC4FF"/>
  <rect x="104" y="522" width="86" height="12" rx="6" fill="#9EB5D4"/>
  <rect x="104" y="550" width="74" height="12" rx="6" fill="#839CBD"/>
  <rect x="354" y="440" width="372" height="112" rx="24" fill="#172B49"/>
  <rect x="384" y="474" width="144" height="18" rx="9" fill="#7CC4FF"/>
  <rect x="384" y="516" width="286" height="14" rx="7" fill="#C4D4E8"/>
  <rect x="384" y="546" width="246" height="14" rx="7" fill="#B0C2DB"/>
  <rect x="354" y="584" width="372" height="112" rx="24" fill="#172B49"/>
  <rect x="384" y="620" width="132" height="18" rx="9" fill="#7CC4FF"/>
  <rect x="384" y="662" width="286" height="14" rx="7" fill="#C4D4E8"/>
  <rect x="384" y="692" width="230" height="14" rx="7" fill="#B0C2DB"/>
  <rect x="74" y="748" width="652" height="164" rx="24" fill="#111F38"/>
  <rect x="104" y="788" width="148" height="18" rx="9" fill="#7CC4FF"/>
  <rect x="104" y="830" width="572" height="14" rx="7" fill="#C4D4E8"/>
  <rect x="104" y="860" width="512" height="14" rx="7" fill="#B0C2DB"/>
</svg>
