<svg width="720" height="420" viewBox="0 0 720 420" fill="none" xmlns="http://www.w3.org/2000/svg">
  <rect width="720" height="420" rx="30" fill="#F6FAFF"/>
  <rect x="34" y="34" width="652" height="352" rx="24" fill="white" stroke="#D7E8FF"/>
  <rect x="34" y="34" width="652" height="92" rx="24" fill="url(#bg1)"/>
  <circle cx="104" cy="80" r="28" fill="#FFFFFF" fill-opacity="0.25"/>
  <rect x="154" y="60" width="208" height="16" rx="8" fill="white" fill-opacity="0.95"/>
  <rect x="154" y="88" width="146" height="10" rx="5" fill="white" fill-opacity="0.7"/>
  <rect x="76" y="156" width="188" height="176" rx="20" fill="#F7FBFF" stroke="#D8E7FA"/>
  <rect x="102" y="186" width="78" height="10" rx="5" fill="#2E5BFF"/>
  <rect x="102" y="212" width="126" height="8" rx="4" fill="#89A7D8"/>
  <rect x="102" y="240" width="132" height="8" rx="4" fill="#89A7D8"/>
  <rect x="102" y="268" width="118" height="8" rx="4" fill="#89A7D8"/>
  <rect x="292" y="156" width="336" height="76" rx="18" fill="#FFFFFF" stroke="#D8E7FA"/>
  <rect x="320" y="182" width="114" height="11" rx="5.5" fill="#8F5EFF"/>
  <rect x="320" y="206" width="250" height="8" rx="4" fill="#9CB4D5"/>
  <rect x="292" y="250" width="336" height="82" rx="18" fill="#FFF8E8" stroke="#F1D89F"/>
  <rect x="320" y="276" width="102" height="11" rx="5.5" fill="#FFB638"/>
  <rect x="320" y="300" width="230" height="8" rx="4" fill="#B59B63"/>
  <defs>
    <linearGradient id="bg1" x1="34" y1="34" x2="686" y2="126" gradientUnits="userSpaceOnUse">
      <stop stop-color="#60C7FF"/>
      <stop offset="0.5" stop-color="#8E63FF"/>
      <stop offset="1" stop-color="#FFC857"/>
    </linearGradient>
  </defs>
</svg>
