<svg width="800" height="1040" viewBox="0 0 800 1040" fill="none" xmlns="http://www.w3.org/2000/svg">
  <rect width="800" height="1040" rx="36" fill="#08111F"/>
  <rect x="44" y="44" width="712" height="952" rx="28" fill="url(#bg)"/>
  <rect x="74" y="84" width="652" height="138" rx="28" fill="rgba(255,255,255,0.05)"/>
  <rect x="104" y="122" width="242" height="32" rx="16" fill="#6CD8FF"/>
  <rect x="104" y="172" width="164" height="16" rx="8" fill="#8BB4D1"/>
  <rect x="544" y="120" width="144" height="14" rx="7" fill="#B6CBE2"/>
  <rect x="562" y="148" width="126" height="14" rx="7" fill="#9EB7D4"/>
  <rect x="104" y="292" width="190" height="18" rx="9" fill="#6CD8FF"/>
  <rect x="104" y="338" width="286" height="16" rx="8" fill="#C7D9ED"/>
  <rect x="104" y="370" width="242" height="16" rx="8" fill="#A8C0DA"/>
  <rect x="104" y="432" width="592" height="180" rx="28" fill="rgba(255,255,255,0.05)"/>
  <rect x="138" y="474" width="184" height="18" rx="9" fill="#6CD8FF"/>
  <rect x="138" y="518" width="510" height="14" rx="7" fill="#C7D9ED"/>
  <rect x="138" y="548" width="468" height="14" rx="7" fill="#A8C0DA"/>
  <rect x="138" y="578" width="436" height="14" rx="7" fill="#A8C0DA"/>
  <rect x="104" y="664" width="286" height="220" rx="28" fill="rgba(255,255,255,0.05)"/>
  <rect x="430" y="664" width="266" height="220" rx="28" fill="rgba(255,255,255,0.05)"/>
  <rect x="138" y="706" width="138" height="18" rx="9" fill="#6CD8FF"/>
  <rect x="138" y="748" width="196" height="14" rx="7" fill="#C7D9ED"/>
  <rect x="138" y="776" width="152" height="14" rx="7" fill="#A8C0DA"/>
  <rect x="462" y="706" width="118" height="18" rx="9" fill="#B38BFF"/>
  <rect x="462" y="748" width="188" height="14" rx="7" fill="#C7D9ED"/>
  <rect x="462" y="776" width="154" height="14" rx="7" fill="#A8C0DA"/>
  <defs>
    <linearGradient id="bg" x1="44" y1="44" x2="756" y2="996" gradientUnits="userSpaceOnUse">
      <stop stop-color="#0B1220"/>
      <stop offset="0.55" stop-color="#0E1A31"/>
      <stop offset="1" stop-color="#09111E"/>
    </linearGradient>
  </defs>
</svg>
