<svg width="800" height="1040" viewBox="0 0 800 1040" fill="none" xmlns="http://www.w3.org/2000/svg">
  <rect width="800" height="1040" rx="36" fill="#EEF4FF"/>
  <rect x="44" y="44" width="712" height="952" rx="28" fill="white"/>
  <rect x="44" y="44" width="252" height="952" rx="28" fill="#14253F"/>
  <circle cx="170" cy="166" r="58" fill="#4EC8FF"/>
  <rect x="96" y="254" width="148" height="28" rx="14" fill="#EAF7FF"/>
  <rect x="116" y="300" width="106" height="14" rx="7" fill="#A9C5E5"/>
  <rect x="96" y="376" width="82" height="18" rx="9" fill="#7EDBFF"/>
  <rect x="96" y="418" width="126" height="12" rx="6" fill="#C3D7ED"/>
  <rect x="96" y="446" width="108" height="12" rx="6" fill="#9EB5D1"/>
  <rect x="96" y="530" width="96" height="18" rx="9" fill="#7EDBFF"/>
  <rect x="96" y="572" width="84" height="12" rx="6" fill="#C3D7ED"/>
  <rect x="96" y="600" width="116" height="12" rx="6" fill="#9EB5D1"/>
  <rect x="334" y="96" width="154" height="18" rx="9" fill="#4E9EFF"/>
  <rect x="334" y="144" width="372" height="164" rx="28" fill="#F7FBFF"/>
  <rect x="366" y="184" width="182" height="18" rx="9" fill="#1B2A3C"/>
  <rect x="366" y="224" width="284" height="14" rx="7" fill="#B2C2D8"/>
  <rect x="366" y="254" width="240" height="14" rx="7" fill="#D4E0EF"/>
  <rect x="334" y="352" width="372" height="164" rx="28" fill="#F7FBFF"/>
  <rect x="366" y="392" width="186" height="18" rx="9" fill="#1B2A3C"/>
  <rect x="366" y="432" width="284" height="14" rx="7" fill="#B2C2D8"/>
  <rect x="366" y="462" width="240" height="14" rx="7" fill="#D4E0EF"/>
  <rect x="334" y="560" width="176" height="204" rx="28" fill="#F7FBFF"/>
  <rect x="530" y="560" width="176" height="204" rx="28" fill="#F7FBFF"/>
  <rect x="364" y="604" width="116" height="18" rx="9" fill="#4E9EFF"/>
  <rect x="560" y="604" width="108" height="18" rx="9" fill="#4E9EFF"/>
  <rect x="364" y="646" width="112" height="12" rx="6" fill="#C1D0E3"/>
  <rect x="560" y="646" width="112" height="12" rx="6" fill="#C1D0E3"/>
</svg>
