<svg width="800" height="1040" viewBox="0 0 800 1040" fill="none" xmlns="http://www.w3.org/2000/svg">
  <rect width="800" height="1040" rx="36" fill="#FFFBF6"/>
  <rect x="40" y="40" width="720" height="960" rx="28" fill="#FFFDFB"/>
  <rect x="70" y="70" width="660" height="332" rx="34" fill="url(#hero)"/>
  <circle cx="186" cy="194" r="64" fill="#FFF1E4"/>
  <rect x="112" y="292" width="156" height="30" rx="15" fill="#1F2937"/>
  <rect x="112" y="340" width="112" height="14" rx="7" fill="#5E6774"/>
  <rect x="354" y="132" width="308" height="202" rx="28" fill="rgba(255,255,255,0.28)"/>
  <rect x="388" y="170" width="168" height="18" rx="9" fill="#1F2937"/>
  <rect x="388" y="216" width="224" height="14" rx="7" fill="#505A68"/>
  <rect x="388" y="246" width="196" height="14" rx="7" fill="#6B7480"/>
  <rect x="70" y="442" width="404" height="458" rx="30" fill="#FFF7EF"/>
  <rect x="106" y="486" width="178" height="18" rx="9" fill="#F08C4A"/>
  <rect x="106" y="534" width="288" height="14" rx="7" fill="#C7B6A6"/>
  <rect x="106" y="564" width="262" height="14" rx="7" fill="#DECEC1"/>
  <rect x="106" y="632" width="178" height="18" rx="9" fill="#F08C4A"/>
  <rect x="106" y="680" width="288" height="14" rx="7" fill="#C7B6A6"/>
  <rect x="106" y="710" width="244" height="14" rx="7" fill="#DECEC1"/>
  <rect x="504" y="442" width="226" height="196" rx="30" fill="#FFF1E4"/>
  <rect x="536" y="484" width="118" height="18" rx="9" fill="#68CFFE"/>
  <rect x="536" y="528" width="146" height="12" rx="6" fill="#C5B4A4"/>
  <rect x="536" y="554" width="126" height="12" rx="6" fill="#DECFC2"/>
  <rect x="504" y="680" width="226" height="220" rx="30" fill="#FFF1E4"/>
  <rect x="536" y="722" width="126" height="18" rx="9" fill="#68CFFE"/>
  <rect x="536" y="766" width="148" height="12" rx="6" fill="#C5B4A4"/>
  <rect x="536" y="792" width="120" height="12" rx="6" fill="#DECFC2"/>
  <defs>
    <linearGradient id="hero" x1="70" y1="70" x2="730" y2="402" gradientUnits="userSpaceOnUse">
      <stop stop-color="#FFB780"/>
      <stop offset="0.5" stop-color="#7FDCFF"/>
      <stop offset="1" stop-color="#FFE9D1"/>
    </linearGradient>
  </defs>
</svg>
