<svg width="800" height="1040" viewBox="0 0 800 1040" fill="none" xmlns="http://www.w3.org/2000/svg">
  <rect width="800" height="1040" rx="36" fill="#F8FBFF"/>
  <rect x="44" y="44" width="712" height="952" rx="28" fill="white"/>
  <rect x="44" y="44" width="712" height="214" rx="28" fill="#F1F7FF"/>
  <rect x="80" y="94" width="226" height="34" rx="17" fill="#5B9EFF"/>
  <rect x="80" y="146" width="156" height="16" rx="8" fill="#90A5C1"/>
  <rect x="552" y="96" width="128" height="14" rx="7" fill="#B3C3D7"/>
  <rect x="566" y="126" width="114" height="14" rx="7" fill="#9FB2CA"/>
  <rect x="290" y="314" width="4" height="566" rx="2" fill="#8AC3FF"/>
  <circle cx="292" cy="374" r="16" fill="white" stroke="#5B9EFF" stroke-width="10"/>
  <circle cx="292" cy="588" r="16" fill="white" stroke="#5B9EFF" stroke-width="10"/>
  <rect x="334" y="330" width="370" height="132" rx="24" fill="#F8FBFF"/>
  <rect x="364" y="366" width="164" height="18" rx="9" fill="#1B2740"/>
  <rect x="364" y="408" width="286" height="14" rx="7" fill="#B9C8DB"/>
  <rect x="364" y="438" width="248" height="14" rx="7" fill="#D8E2EF"/>
  <rect x="334" y="544" width="370" height="132" rx="24" fill="#F8FBFF"/>
  <rect x="364" y="580" width="168" height="18" rx="9" fill="#1B2740"/>
  <rect x="364" y="622" width="286" height="14" rx="7" fill="#B9C8DB"/>
  <rect x="364" y="652" width="248" height="14" rx="7" fill="#D8E2EF"/>
  <rect x="82" y="312" width="162" height="164" rx="24" fill="#F8FBFF"/>
  <rect x="106" y="350" width="110" height="18" rx="9" fill="#5B9EFF"/>
  <rect x="106" y="394" width="116" height="12" rx="6" fill="#BECDE0"/>
  <rect x="106" y="420" width="96" height="12" rx="6" fill="#D8E2EF"/>
  <rect x="82" y="518" width="162" height="164" rx="24" fill="#F8FBFF"/>
  <rect x="106" y="556" width="96" height="18" rx="9" fill="#5B9EFF"/>
  <rect x="106" y="600" width="118" height="12" rx="6" fill="#BECDE0"/>
  <rect x="106" y="626" width="94" height="12" rx="6" fill="#D8E2EF"/>
</svg>
